<svg xmlns="http://www.w3.org/2000/svg" viewBox="0 0 480 300" width="480" height="300">
  <defs>
    <linearGradient id="bg" x1="0%" y1="0%" x2="100%" y2="100%">
      <stop offset="0%" stop-color="#0c1222"/>
      <stop offset="100%" stop-color="#06080f"/>
    </linearGradient>
    <radialGradient id="s1" cx="50%" cy="50%" r="50%"><stop offset="0%" stop-color="#fde68a"/><stop offset="40%" stop-color="#fbbf24" stop-opacity="0.6"/><stop offset="100%" stop-color="#fbbf24" stop-opacity="0"/></radialGradient>
    <radialGradient id="s2" cx="50%" cy="50%" r="50%"><stop offset="0%" stop-color="#93c5fd"/><stop offset="40%" stop-color="#3b82f6" stop-opacity="0.5"/><stop offset="100%" stop-color="#3b82f6" stop-opacity="0"/></radialGradient>
    <radialGradient id="s3" cx="50%" cy="50%" r="50%"><stop offset="0%" stop-color="#c4b5fd"/><stop offset="40%" stop-color="#7c3aed" stop-opacity="0.5"/><stop offset="100%" stop-color="#7c3aed" stop-opacity="0"/></radialGradient>
    <filter id="g1"><feGaussianBlur stdDeviation="3"/></filter>
    <filter id="g2"><feGaussianBlur stdDeviation="6"/></filter>
  </defs>
  <rect width="480" height="300" fill="url(#bg)" rx="12"/>
  <circle cx="30" cy="25" r="0.8" fill="white" opacity="0.4"/><circle cx="120" cy="12" r="0.6" fill="white" opacity="0.3"/><circle cx="200" cy="42" r="0.8" fill="white" opacity="0.25"/><circle cx="400" cy="22" r="0.7" fill="white" opacity="0.35"/><circle cx="460" cy="60" r="0.6" fill="white" opacity="0.2"/><circle cx="30" cy="180" r="0.8" fill="white" opacity="0.2"/><circle cx="250" cy="280" r="0.7" fill="white" opacity="0.3"/>
  <text x="30" y="36" font-family="'Inter',system-ui,sans-serif" font-size="11" fill="#5eead4" font-weight="600" letter-spacing="2">N-BODY SIMULATION</text>
  <text x="30" y="52" font-family="'Inter',system-ui,sans-serif" font-size="9" fill="#475569">Princeton RSE Fellowship · CUDA + Intel MIC + CPU</text>
  <ellipse cx="170" cy="165" rx="85" ry="45" fill="none" stroke="#fbbf24" stroke-width="0.4" stroke-dasharray="3,4" opacity="0.2"/>
  <ellipse cx="170" cy="165" rx="130" ry="70" fill="none" stroke="#60a5fa" stroke-width="0.4" stroke-dasharray="3,4" opacity="0.15"/>
  <ellipse cx="170" cy="165" rx="60" ry="100" fill="none" stroke="#a78bfa" stroke-width="0.4" stroke-dasharray="2,5" opacity="0.15" transform="rotate(-25 170 165)"/>
  <circle cx="170" cy="165" r="24" fill="url(#s1)" filter="url(#g2)"/><circle cx="170" cy="165" r="12" fill="#fde68a"/><circle cx="170" cy="165" r="7" fill="#fef3c7"/>
  <circle cx="260" cy="125" r="18" fill="url(#s2)" filter="url(#g1)"/><circle cx="260" cy="125" r="8" fill="#93c5fd"/>
  <circle cx="75" cy="140" r="14" fill="url(#s3)" filter="url(#g1)"/><circle cx="75" cy="140" r="6" fill="#c4b5fd"/>
  <circle cx="210" cy="230" r="4" fill="#5eead4" opacity="0.6"/><circle cx="120" cy="220" r="3" fill="#fbbf24" opacity="0.5"/><circle cx="230" cy="100" r="3" fill="#a78bfa" opacity="0.5"/>
  <line x1="260" y1="125" x2="278" y2="108" stroke="#5eead4" stroke-width="1.2" opacity="0.6"/><path d="M275 112 L280 106 L273 108" fill="#5eead4" opacity="0.6"/>
  <line x1="75" y1="140" x2="88" y2="120" stroke="#5eead4" stroke-width="1" opacity="0.5"/><path d="M85 124 L90 118 L83 121" fill="#5eead4" opacity="0.5"/>
  <rect x="310" y="68" width="150" height="208" rx="10" fill="#0f172a" stroke="#1e293b" stroke-width="1"/>
  <text x="385" y="90" font-family="'SF Mono',monospace" font-size="9" fill="#5eead4" text-anchor="middle" font-weight="600">PERFORMANCE</text>
  <text x="324" y="112" font-family="'SF Mono',monospace" font-size="8" fill="#60a5fa">CUDA</text>
  <rect x="324" y="116" width="122" height="8" rx="3" fill="#172554"/><rect x="324" y="116" width="122" height="8" rx="3" fill="#3b82f6" opacity="0.8"/>
  <text x="448" y="112" font-family="'SF Mono',monospace" font-size="8" fill="#60a5fa" text-anchor="end" font-weight="700">50×</text>
  <text x="324" y="140" font-family="'SF Mono',monospace" font-size="8" fill="#a78bfa">Intel MIC</text>
  <rect x="324" y="144" width="122" height="8" rx="3" fill="#1e1b4b"/><rect x="324" y="144" width="85" height="8" rx="3" fill="#7c3aed" opacity="0.8"/>
  <text x="448" y="140" font-family="'SF Mono',monospace" font-size="8" fill="#a78bfa" text-anchor="end" font-weight="700">35×</text>
  <text x="324" y="168" font-family="'SF Mono',monospace" font-size="8" fill="#5eead4">OpenMP</text>
  <rect x="324" y="172" width="122" height="8" rx="3" fill="#064e3b"/><rect x="324" y="172" width="40" height="8" rx="3" fill="#5eead4" opacity="0.8"/>
  <text x="448" y="168" font-family="'SF Mono',monospace" font-size="8" fill="#5eead4" text-anchor="end" font-weight="700">16×</text>
  <text x="324" y="196" font-family="'SF Mono',monospace" font-size="8" fill="#475569">CPU</text>
  <rect x="324" y="200" width="122" height="8" rx="3" fill="#1e293b"/><rect x="324" y="200" width="3" height="8" rx="1" fill="#475569"/>
  <text x="448" y="196" font-family="'SF Mono',monospace" font-size="8" fill="#475569" text-anchor="end">1×</text>
  <rect x="324" y="224" width="122" height="42" rx="6" fill="#052e16" stroke="#16a34a" stroke-width="0.8"/>
  <text x="385" y="242" font-family="'SF Mono',monospace" font-size="9" fill="#4ade80" text-anchor="middle" font-weight="600">Multi-arch optimized</text>
  <text x="385" y="258" font-family="'SF Mono',monospace" font-size="7" fill="#166534" text-anchor="middle">CUDA + MIC + CPU backends</text>
  <text x="30" y="286" font-family="'SF Mono',monospace" font-size="8" fill="#334155">CUDA C · Intel MIC · OpenMP · Princeton RSE Fellowship 2025</text>
</svg>
